<?xml version="1.0" encoding="UTF-8"?>
<svg xmlns="http://www.w3.org/2000/svg" viewBox="0 0 512 512">
  <rect width="512" height="512" fill="#4f7cff" rx="100" ry="100"/>
  <path d="M389.2 158.4c-16.8-16.8-43.9-16.8-60.6 0l-22.4 22.4c-8.7-5.5-18.9-8.6-29.1-8.6-14.1 0-28.3 5.4-39.1 16.2L176.8 250c-21.6 21.6-21.6 56.5 0 78.1 10.8 10.8 24.9 16.2 39.1 16.2 14.1 0 28.3-5.4 39.1-16.2l61.2-61.2c12.4-12.4 16.5-29.8 12.5-45.4l22.4-22.4c16.8-16.8 16.8-43.9 0-60.6l-61.9 18.9zm-174.8 134.1l61.2-61.2c5-5 11.8-7.8 18.9-7.8 7.1 0 13.8 2.8 18.9 7.8 5 5 7.8 11.8 7.8 18.9 0 7.1-2.8 13.8-7.8 18.9L252.2 330c-5 5-11.8 7.8-18.9 7.8-7.1 0-13.8-2.8-18.9-7.8-10.4-10.4-10.4-27.4 0-37.8v.3z" fill="#fff"/>
</svg>
